<svg width="244" height="269" viewBox="0 0 244 269" fill="none" xmlns="http://www.w3.org/2000/svg">
<path d="M115.373 15.2874C115.373 1.44392 98.4266 -5.24372 88.9799 4.87178L72.3536 22.6752C66.1522 29.3156 62.7027 38.0642 62.7027 47.1518L62.7027 75.4402C62.7027 89.2836 79.6494 95.9713 89.096 85.8557L105.722 68.0521C111.924 61.4117 115.373 52.6632 115.373 43.5756V15.2874Z" fill="#EA2C2C"/>
<path d="M0 114.295C-9.53172e-06 105.207 3.44942 96.4584 9.65078 89.818L26.2772 72.0144C35.7239 61.8989 52.6705 68.5865 52.6705 82.43L52.6705 110.718C52.6705 119.806 49.2211 128.554 43.0198 135.195L25.0737 154.411C16.0993 164.021 4.54929e-05 157.668 3.16989e-05 144.517L0 114.295Z" fill="#EA2C2C"/>
<path d="M244 114.295C244 105.207 240.551 96.4584 234.349 89.818L217.723 72.0144C208.276 61.8989 191.33 68.5865 191.33 82.43L191.33 110.718C191.33 119.806 194.779 128.554 200.98 135.195L218.926 154.411C227.901 164.021 244 157.668 244 144.517L244 114.295Z" fill="#EA2C2C"/>
<path d="M181.297 47.1518C181.297 38.0642 177.848 29.3156 171.646 22.6752L155.02 4.87177C145.573 -5.24373 128.627 1.44392 128.627 15.2874V43.5756C128.627 52.6632 132.076 61.4117 138.278 68.0521L154.904 85.8557C164.351 95.9713 181.297 89.2836 181.297 75.4402V47.1518Z" fill="#EA2C2C"/>
<path d="M190.31 239.469C153.54 278.844 91.1328 278.844 54.362 239.469L39.1541 223.185C21.9059 204.715 21.906 176.036 39.1542 157.567L92.8065 100.116C108.781 83.0106 135.892 83.0106 151.866 100.116L205.518 157.567C222.766 176.036 222.766 204.715 205.518 223.185L190.31 239.469Z" fill="#EA2C2C"/>
</svg>
