<svg width="12" height="12" viewBox="0 0 12 12" fill="none" xmlns="http://www.w3.org/2000/svg">
<path fill-rule="evenodd" clip-rule="evenodd" d="M0.625902 0.626145C1.01643 0.235621 1.64959 0.235621 2.04012 0.626145L5.99968 4.58571L9.95923 0.626147C10.3498 0.235623 10.9829 0.235623 11.3734 0.626147C11.764 1.01667 11.764 1.64984 11.3734 2.04036L7.41389 5.99992L11.3734 9.95948C11.764 10.35 11.764 10.9832 11.3734 11.3737C10.9829 11.7642 10.3498 11.7642 9.95923 11.3737L5.99968 7.41413L2.04011 11.3737C1.64959 11.7642 1.01643 11.7642 0.625901 11.3737C0.235377 10.9832 0.235377 10.35 0.625901 9.95948L4.58546 5.99992L0.625902 2.04036C0.235377 1.64983 0.235377 1.01667 0.625902 0.626145Z" fill="white"/>
</svg>
