<svg width="76" height="76" viewBox="0 0 76 76" fill="none" xmlns="http://www.w3.org/2000/svg">
<g filter="url(#filter0_d_1_1858)">
<rect x="16" y="12" width="48" height="48" rx="24" fill="white"/>
<path d="M39.9998 26.3999C37.0084 26.3999 34.5998 28.8467 34.5998 31.8856V32.7999C33.6098 32.7999 32.7998 33.6228 32.7998 34.6285V43.7713C32.7998 44.777 33.6098 45.5999 34.5998 45.5999H45.3998C46.3898 45.5999 47.1998 44.777 47.1998 43.7713V34.6285C47.1998 33.6228 46.3898 32.7999 45.3998 32.7999V31.8856C45.3998 28.8467 42.9912 26.3999 39.9998 26.3999ZM39.9998 28.2285C42.0484 28.2285 43.5998 29.8045 43.5998 31.8856V32.7999H36.3998V31.8856C36.3998 29.8045 37.9512 28.2285 39.9998 28.2285ZM39.9998 37.3713C40.9898 37.3713 41.7998 38.1942 41.7998 39.1999C41.7998 40.2056 40.9898 41.0285 39.9998 41.0285C39.0098 41.0285 38.1998 40.2056 38.1998 39.1999C38.1998 38.1942 39.0098 37.3713 39.9998 37.3713Z" fill="#E65353"/>
</g>
<defs>
<filter id="filter0_d_1_1858" x="0" y="-4" width="80" height="80" filterUnits="userSpaceOnUse" color-interpolation-filters="sRGB">
<feFlood flood-opacity="0" result="BackgroundImageFix"/>
<feColorMatrix in="SourceAlpha" type="matrix" values="0 0 0 0 0 0 0 0 0 0 0 0 0 0 0 0 0 0 127 0" result="hardAlpha"/>
<feOffset/>
<feGaussianBlur stdDeviation="8"/>
<feComposite in2="hardAlpha" operator="out"/>
<feColorMatrix type="matrix" values="0 0 0 0 0 0 0 0 0 0 0 0 0 0 0 0 0 0 0.08 0"/>
<feBlend mode="normal" in2="BackgroundImageFix" result="effect1_dropShadow_1_1858"/>
<feBlend mode="normal" in="SourceGraphic" in2="effect1_dropShadow_1_1858" result="shape"/>
</filter>
</defs>
</svg>
