<svg width="20" height="20" viewBox="0 0 20 20" fill="none" xmlns="http://www.w3.org/2000/svg">
<path fill-rule="evenodd" clip-rule="evenodd" d="M10 6.99991C8.34315 6.99991 7 8.34305 7 9.99991C7 11.6568 8.34315 12.9999 10 12.9999C11.6569 12.9999 13 11.6568 13 9.99991C13 8.34305 11.6569 6.99991 10 6.99991ZM10 8.99991C9.44771 8.99991 9 9.44762 9 9.99991C9 10.5522 9.44771 10.9999 10 10.9999C10.5523 10.9999 11 10.5522 11 9.99991C11 9.44762 10.5523 8.99991 10 8.99991Z" fill="#121212"/>
<path fill-rule="evenodd" clip-rule="evenodd" d="M12.6468 2.08067C11.9719 -0.689952 8.02807 -0.695468 7.35211 2.0795L7.35176 2.08095C7.32497 2.19165 7.27241 2.29447 7.19837 2.38103C7.12433 2.46759 7.0309 2.53545 6.92568 2.57909C6.89053 2.59366 6.8544 2.6054 6.81763 2.61424C6.74432 2.63186 6.66848 2.63797 6.59285 2.63214C6.47932 2.62338 6.36934 2.58788 6.27209 2.52866C3.83336 1.04284 1.04251 3.8335 2.52859 6.27233C2.63453 6.44614 2.65733 6.6422 2.6136 6.82029C2.55213 7.07062 2.35922 7.28546 2.08096 7.35319C-0.692387 8.02675 -0.695195 11.9747 2.08179 12.6471C2.1925 12.6739 2.2953 12.7265 2.38184 12.8006C2.4684 12.8747 2.53624 12.9682 2.57983 13.0735C2.62342 13.1787 2.64154 13.2928 2.63269 13.4064C2.62385 13.52 2.58795 13.6305 2.52859 13.7278C1.04249 16.1666 3.83404 18.957 6.27279 17.471C6.37006 17.4116 6.47997 17.3761 6.59357 17.3673C6.70718 17.3584 6.82127 17.3765 6.92655 17.4201C7.03182 17.4637 7.12531 17.5315 7.19941 17.6181C7.27351 17.7047 7.32623 17.808 7.35306 17.9187C8.02639 20.692 11.9737 20.6952 12.6469 17.9191C12.6738 17.8083 12.7265 17.7055 12.8007 17.6189C12.8749 17.5323 12.9684 17.4645 13.0738 17.4208C13.1791 17.3772 13.2932 17.3591 13.4069 17.3679C13.5206 17.3767 13.6306 17.4122 13.728 17.4715C16.1667 18.9572 18.9575 16.1666 17.4714 13.7278C17.4122 13.6304 17.3767 13.5205 17.3679 13.4069C17.3591 13.2932 17.3773 13.1791 17.4209 13.0738C17.4645 12.9684 17.5324 12.8749 17.6189 12.8007C17.7055 12.7265 17.8084 12.6738 17.9192 12.6469C20.6924 11.9732 20.6951 8.02542 17.9182 7.35298C17.8075 7.32615 17.7047 7.27355 17.6182 7.19948C17.5316 7.12539 17.4638 7.0319 17.4202 6.92662C17.3766 6.82135 17.3585 6.70727 17.3673 6.59368C17.3761 6.48008 17.4121 6.36959 17.4714 6.27233C18.9575 3.83346 16.166 1.04311 13.7272 2.52909C13.6299 2.58845 13.52 2.624 13.4064 2.63284C13.2928 2.64168 13.1787 2.62357 13.0735 2.57998C12.9682 2.53638 12.8747 2.46854 12.8006 2.38198C12.7265 2.29539 12.6739 2.19258 12.6471 2.08189L12.6468 2.08067ZM9.29546 2.55213C9.19455 2.96859 8.99679 3.35537 8.71825 3.68102C8.43955 4.00686 8.08786 4.26229 7.6918 4.42654C7.29574 4.59078 6.86649 4.65919 6.439 4.62621C6.18254 4.60642 5.93106 4.55048 5.69182 4.46073C5.53226 4.40087 5.37815 4.32597 5.23165 4.23673C5.22416 4.23216 5.21666 4.22775 5.20915 4.22349C5.01614 4.114 4.81616 4.10337 4.64135 4.15947C4.41552 4.23194 4.2317 4.41576 4.15926 4.64159C4.10315 4.81647 4.11384 5.01654 4.22352 5.20959C4.22769 5.21692 4.23199 5.22424 4.23644 5.23154C5.1965 6.80686 4.34496 8.86115 2.55331 9.29661C1.81454 9.47597 1.81719 10.5252 2.55248 10.7033C2.96933 10.8043 3.35653 11.0023 3.68238 11.2812C4.00822 11.5601 4.26358 11.912 4.42767 12.3083C4.59177 12.7046 4.65995 13.134 4.62666 13.5616C4.59339 13.9891 4.45963 14.4028 4.23628 14.7688C3.8418 15.4169 4.58331 16.1584 5.23153 15.7634C5.5975 15.5402 6.01099 15.4065 6.43837 15.3733C6.86599 15.34 7.29541 15.4082 7.69169 15.5723C8.08797 15.7364 8.43989 15.9917 8.7188 16.3176C8.9976 16.6433 9.19557 17.0302 9.29659 17.4469C9.47596 18.1856 10.5252 18.1827 10.7033 17.4474C10.8046 17.0309 11.003 16.6432 11.2819 16.3177C11.5608 15.9921 11.9125 15.737 12.3086 15.573C12.7047 15.409 13.1338 15.3408 13.5612 15.3738C13.9886 15.4069 14.4022 15.5404 14.7683 15.7633C15.4166 16.1584 16.1585 15.4166 15.7635 14.7685C15.5405 14.4023 15.407 13.9886 15.3739 13.5612C15.3408 13.1338 15.409 12.7047 15.573 12.3086C15.7371 11.9125 15.9922 11.5608 16.3177 11.2819C16.6433 11.003 17.03 10.8048 17.4465 10.7035C18.1853 10.5242 18.1828 9.47486 17.4475 9.29681C17.0307 9.19582 16.6435 8.99779 16.3176 8.71889C15.9918 8.43999 15.7364 8.08807 15.5723 7.69179C15.4082 7.29552 15.3401 6.86609 15.3733 6.43847C15.4066 6.01091 15.5405 5.59712 15.7639 5.23104C16.158 4.583 15.4166 3.84173 14.7685 4.23666C14.5539 4.36752 14.323 4.46761 14.0826 4.53473C13.9129 4.5821 13.7384 4.61305 13.5616 4.62681C13.134 4.66009 12.7046 4.59192 12.3083 4.42783C11.912 4.26374 11.5601 4.00838 11.2812 3.68254C11.1658 3.54772 11.0642 3.4024 10.9777 3.24882C10.8551 3.03142 10.7626 2.79746 10.7034 2.55326C10.5228 1.81482 9.47497 1.81802 9.29546 2.55213Z" fill="#121212"/>
</svg>
